<svg width="115" height="108" viewBox="0 0 115 108" fill="none" xmlns="http://www.w3.org/2000/svg">
<rect x="0.5" width="114" height="108" rx="8" fill="#F6F6F6"/>
<g clip-path="url(#clip0_1047_4303)">
<path d="M50.5219 52.3088L50.5039 52.3268C50.2609 51.7958 50.1079 51.1928 50.0449 50.5268C50.1079 51.1838 50.2789 51.7778 50.5219 52.3088ZM56.2999 44.5418C56.868 44.5418 57.4128 44.3161 57.8145 43.9144C58.2162 43.5127 58.4419 42.9679 58.4419 42.3998C58.4419 41.8317 58.2162 41.2869 57.8145 40.8852C57.4128 40.4835 56.868 40.2578 56.2999 40.2578C55.7318 40.2578 55.187 40.4835 54.7853 40.8852C54.3836 41.2869 54.1579 41.8317 54.1579 42.3998C54.1579 42.9679 54.3836 43.5127 54.7853 43.9144C55.187 44.3161 55.7318 44.5418 56.2999 44.5418Z" fill="#B2B4B3"/>
<path d="M62.771 37H55.229C51.953 37 50 38.953 50 42.229V49.771C50 50.752 50.171 51.607 50.504 52.327C51.278 54.037 52.934 55 55.229 55H62.771C66.047 55 68 53.047 68 49.771V42.229C68 38.953 66.047 37 62.771 37ZM66.533 46.45C65.831 45.847 64.697 45.847 63.995 46.45L60.251 49.663C59.549 50.266 58.415 50.266 57.713 49.663L57.407 49.411C56.768 48.853 55.751 48.799 55.031 49.285L51.665 51.544C51.467 51.04 51.35 50.455 51.35 49.771V42.229C51.35 39.691 52.691 38.35 55.229 38.35H62.771C65.309 38.35 66.65 39.691 66.65 42.229V46.549L66.533 46.45Z" fill="#B2B4B3"/>
</g>
<path opacity="0.7" d="M36.2811 69L38.8171 63.4H39.6091L42.1531 69H41.3131L39.0491 63.848H39.3691L37.1051 69H36.2811ZM37.3611 67.6L37.5771 66.96H40.7291L40.9611 67.6H37.3611ZM44.5894 69.048C44.1787 69.048 43.8107 68.9573 43.4854 68.776C43.1654 68.5947 42.912 68.3413 42.7254 68.016C42.5387 67.6907 42.4454 67.312 42.4454 66.88C42.4454 66.448 42.5387 66.072 42.7254 65.752C42.912 65.4267 43.1654 65.1733 43.4854 64.992C43.8107 64.8107 44.1787 64.72 44.5894 64.72C44.9467 64.72 45.2694 64.8 45.5574 64.96C45.8454 65.12 46.0747 65.36 46.2454 65.68C46.4214 66 46.5094 66.4 46.5094 66.88C46.5094 67.36 46.424 67.76 46.2534 68.08C46.088 68.4 45.8614 68.6427 45.5734 68.808C45.2854 68.968 44.9574 69.048 44.5894 69.048ZM44.6534 68.376C44.92 68.376 45.16 68.3147 45.3734 68.192C45.592 68.0693 45.7627 67.896 45.8854 67.672C46.0134 67.4427 46.0774 67.1787 46.0774 66.88C46.0774 66.576 46.0134 66.3147 45.8854 66.096C45.7627 65.872 45.592 65.6987 45.3734 65.576C45.16 65.4533 44.92 65.392 44.6534 65.392C44.3814 65.392 44.1387 65.4533 43.9254 65.576C43.712 65.6987 43.5414 65.872 43.4134 66.096C43.2854 66.3147 43.2214 66.576 43.2214 66.88C43.2214 67.1787 43.2854 67.4427 43.4134 67.672C43.5414 67.896 43.712 68.0693 43.9254 68.192C44.1387 68.3147 44.3814 68.376 44.6534 68.376ZM46.1014 69V67.856L46.1494 66.872L46.0694 65.888V63.064H46.8374V69H46.1014ZM50.0425 69.048C49.6318 69.048 49.2638 68.9573 48.9385 68.776C48.6185 68.5947 48.3652 68.3413 48.1785 68.016C47.9918 67.6907 47.8985 67.312 47.8985 66.88C47.8985 66.448 47.9918 66.072 48.1785 65.752C48.3652 65.4267 48.6185 65.1733 48.9385 64.992C49.2638 64.8107 49.6318 64.72 50.0425 64.72C50.3998 64.72 50.7225 64.8 51.0105 64.96C51.2985 65.12 51.5278 65.36 51.6985 65.68C51.8745 66 51.9625 66.4 51.9625 66.88C51.9625 67.36 51.8772 67.76 51.7065 68.08C51.5412 68.4 51.3145 68.6427 51.0265 68.808C50.7385 68.968 50.4105 69.048 50.0425 69.048ZM50.1065 68.376C50.3732 68.376 50.6132 68.3147 50.8265 68.192C51.0452 68.0693 51.2158 67.896 51.3385 67.672C51.4665 67.4427 51.5305 67.1787 51.5305 66.88C51.5305 66.576 51.4665 66.3147 51.3385 66.096C51.2158 65.872 51.0452 65.6987 50.8265 65.576C50.6132 65.4533 50.3732 65.392 50.1065 65.392C49.8345 65.392 49.5918 65.4533 49.3785 65.576C49.1652 65.6987 48.9945 65.872 48.8665 66.096C48.7385 66.3147 48.6745 66.576 48.6745 66.88C48.6745 67.1787 48.7385 67.4427 48.8665 67.672C48.9945 67.896 49.1652 68.0693 49.3785 68.192C49.5918 68.3147 49.8345 68.376 50.1065 68.376ZM51.5545 69V67.856L51.6025 66.872L51.5225 65.888V63.064H52.2905V69H51.5545ZM56.0041 69V63.4H58.1881C58.6787 63.4 59.0974 63.4773 59.4441 63.632C59.7907 63.7867 60.0574 64.0107 60.2441 64.304C60.4307 64.5973 60.5241 64.9467 60.5241 65.352C60.5241 65.7573 60.4307 66.1067 60.2441 66.4C60.0574 66.688 59.7907 66.912 59.4441 67.072C59.0974 67.2267 58.6787 67.304 58.1881 67.304H56.4441L56.8041 66.928V69H56.0041ZM56.8041 67.008L56.4441 66.608H58.1641C58.6761 66.608 59.0627 66.4987 59.3241 66.28C59.5907 66.0613 59.7241 65.752 59.7241 65.352C59.7241 64.952 59.5907 64.6427 59.3241 64.424C59.0627 64.2053 58.6761 64.096 58.1641 64.096H56.4441L56.8041 63.696V67.008ZM63.9295 64.72C64.2762 64.72 64.5802 64.7867 64.8415 64.92C65.1082 65.0533 65.3162 65.256 65.4655 65.528C65.6148 65.8 65.6895 66.144 65.6895 66.56V69H64.9215V66.648C64.9215 66.2373 64.8202 65.928 64.6175 65.72C64.4202 65.512 64.1402 65.408 63.7775 65.408C63.5055 65.408 63.2682 65.4613 63.0655 65.568C62.8628 65.6747 62.7055 65.832 62.5935 66.04C62.4868 66.248 62.4335 66.5067 62.4335 66.816V69H61.6655V63.064H62.4335V65.904L62.2815 65.6C62.4202 65.3227 62.6335 65.1067 62.9215 64.952C63.2095 64.7973 63.5455 64.72 63.9295 64.72ZM68.9268 69.048C68.5001 69.048 68.1215 68.9547 67.7908 68.768C67.4601 68.5813 67.1988 68.3253 67.0068 68C66.8148 67.6693 66.7188 67.296 66.7188 66.88C66.7188 66.4587 66.8148 66.0853 67.0068 65.76C67.1988 65.4347 67.4601 65.1813 67.7908 65C68.1215 64.8133 68.5001 64.72 68.9268 64.72C69.3481 64.72 69.7241 64.8133 70.0548 65C70.3908 65.1813 70.6521 65.4347 70.8388 65.76C71.0308 66.08 71.1268 66.4533 71.1268 66.88C71.1268 67.3013 71.0308 67.6747 70.8388 68C70.6521 68.3253 70.3908 68.5813 70.0548 68.768C69.7241 68.9547 69.3481 69.048 68.9268 69.048ZM68.9268 68.376C69.1988 68.376 69.4415 68.3147 69.6548 68.192C69.8735 68.0693 70.0441 67.896 70.1668 67.672C70.2895 67.4427 70.3508 67.1787 70.3508 66.88C70.3508 66.576 70.2895 66.3147 70.1668 66.096C70.0441 65.872 69.8735 65.6987 69.6548 65.576C69.4415 65.4533 69.1988 65.392 68.9268 65.392C68.6548 65.392 68.4121 65.4533 68.1988 65.576C67.9855 65.6987 67.8148 65.872 67.6868 66.096C67.5588 66.3147 67.4948 66.576 67.4948 66.88C67.4948 67.1787 67.5588 67.4427 67.6868 67.672C67.8148 67.896 67.9855 68.0693 68.1988 68.192C68.4121 68.3147 68.6548 68.376 68.9268 68.376ZM73.6449 69.048C73.2183 69.048 72.8876 68.9333 72.6529 68.704C72.4183 68.4747 72.3009 68.1467 72.3009 67.72V63.832H73.0689V67.688C73.0689 67.9173 73.1249 68.0933 73.2369 68.216C73.3543 68.3387 73.5196 68.4 73.7329 68.4C73.9729 68.4 74.1729 68.3333 74.3329 68.2L74.5729 68.752C74.4556 68.8533 74.3143 68.928 74.1489 68.976C73.9889 69.024 73.8209 69.048 73.6449 69.048ZM71.5809 65.392V64.76H74.2849V65.392H71.5809ZM77.1768 69.048C76.7501 69.048 76.3715 68.9547 76.0408 68.768C75.7101 68.5813 75.4488 68.3253 75.2568 68C75.0648 67.6693 74.9688 67.296 74.9688 66.88C74.9688 66.4587 75.0648 66.0853 75.2568 65.76C75.4488 65.4347 75.7101 65.1813 76.0408 65C76.3715 64.8133 76.7501 64.72 77.1768 64.72C77.5981 64.72 77.9741 64.8133 78.3048 65C78.6408 65.1813 78.9021 65.4347 79.0888 65.76C79.2808 66.08 79.3768 66.4533 79.3768 66.88C79.3768 67.3013 79.2808 67.6747 79.0888 68C78.9021 68.3253 78.6408 68.5813 78.3048 68.768C77.9741 68.9547 77.5981 69.048 77.1768 69.048ZM77.1768 68.376C77.4488 68.376 77.6915 68.3147 77.9048 68.192C78.1235 68.0693 78.2941 67.896 78.4168 67.672C78.5395 67.4427 78.6008 67.1787 78.6008 66.88C78.6008 66.576 78.5395 66.3147 78.4168 66.096C78.2941 65.872 78.1235 65.6987 77.9048 65.576C77.6915 65.4533 77.4488 65.392 77.1768 65.392C76.9048 65.392 76.6621 65.4533 76.4488 65.576C76.2355 65.6987 76.0648 65.872 75.9368 66.096C75.8088 66.3147 75.7448 66.576 75.7448 66.88C75.7448 67.1787 75.8088 67.4427 75.9368 67.672C76.0648 67.896 76.2355 68.0693 76.4488 68.192C76.6621 68.3147 76.9048 68.376 77.1768 68.376Z" fill="#747985"/>
<defs>
<clipPath id="clip0_1047_4303">
<rect width="18" height="18" fill="white" transform="translate(50 37)"/>
</clipPath>
</defs>
</svg>
