<svg width="36" height="36" viewBox="0 0 36 36" fill="none" xmlns="http://www.w3.org/2000/svg">
<path d="M22.5 11.8123C22.2016 11.8123 21.9155 11.6938 21.7045 11.4828C21.4935 11.2719 21.375 10.9857 21.375 10.6873V8.99984C21.375 8.58212 21.2091 8.18151 20.9137 7.88614C20.6183 7.59077 20.2177 7.42484 19.8 7.42484H4.95C4.53228 7.42484 4.13168 7.59077 3.83631 7.88614C3.54094 8.18151 3.375 8.58212 3.375 8.99984V26.0773C3.375 26.4951 3.54094 26.8957 3.83631 27.191C4.13168 27.4864 4.53228 27.6523 4.95 27.6523H19.8C20.2177 27.6523 20.6183 27.4864 20.9137 27.191C21.2091 26.8957 21.375 26.4951 21.375 26.0773V24.1761C21.375 23.8777 21.4935 23.5916 21.7045 23.3806C21.9155 23.1696 22.2016 23.0511 22.5 23.0511C22.7984 23.0511 23.0845 23.1696 23.2955 23.3806C23.5065 23.5916 23.625 23.8777 23.625 24.1761V26.0773C23.625 27.0918 23.222 28.0647 22.5047 28.782C21.7874 29.4994 20.8145 29.9023 19.8 29.9023H4.95C3.93555 29.9023 2.96264 29.4994 2.24532 28.782C1.52799 28.0647 1.125 27.0918 1.125 26.0773V8.99984C1.125 7.98539 1.52799 7.01248 2.24532 6.29515C2.96264 5.57783 3.93555 5.17484 4.95 5.17484H19.8C20.8145 5.17484 21.7874 5.57783 22.5047 6.29515C23.222 7.01248 23.625 7.98539 23.625 8.99984V10.6873C23.625 10.9857 23.5065 11.2719 23.2955 11.4828C23.0845 11.6938 22.7984 11.8123 22.5 11.8123Z" fill="#747985"/>
<path d="M28.5862 23.2979C28.4726 23.3926 28.3413 23.464 28.2 23.5079C28.0587 23.5518 27.9101 23.5674 27.7628 23.5538C27.6154 23.5403 27.4722 23.4977 27.3413 23.4287C27.2104 23.3597 27.0944 23.2655 27 23.1516C26.9046 23.0386 26.8324 22.908 26.7876 22.7671C26.7428 22.6262 26.7261 22.4778 26.7387 22.3305C26.7512 22.1832 26.7927 22.0398 26.8607 21.9085C26.9287 21.7772 27.0219 21.6606 27.135 21.5654L30.6225 18.6516H14.625C14.3266 18.6516 14.0405 18.5331 13.8295 18.3221C13.6185 18.1111 13.5 17.825 13.5 17.5266C13.5 17.2282 13.6185 16.9421 13.8295 16.7311C14.0405 16.5201 14.3266 16.4016 14.625 16.4016H30.645L27.1462 13.4991C26.9165 13.3082 26.772 13.0338 26.7446 12.7363C26.7172 12.4388 26.809 12.1426 27 11.9129C27.191 11.6831 27.4654 11.5386 27.7628 11.5112C28.0603 11.4838 28.3565 11.5757 28.5862 11.7666L33.4125 15.7491C33.6713 15.9601 33.8798 16.2261 34.023 16.5277C34.1663 16.8293 34.2406 17.159 34.2406 17.4929C34.2406 17.8267 34.1663 18.1565 34.023 18.4581C33.8798 18.7597 33.6713 19.0256 33.4125 19.2366L28.5862 23.2979Z" fill="#747985"/>
</svg>
